<?xml version="1.0" standalone="no"?>
<!DOCTYPE svg PUBLIC "-//W3C//DTD SVG 20010904//EN"
 "http://www.w3.org/TR/2001/REC-SVG-20010904/DTD/svg10.dtd">
<svg version="1.0" xmlns="http://www.w3.org/2000/svg"
 width="447.000000pt" height="447.000000pt" viewBox="0 0 447.000000 447.000000"
 preserveAspectRatio="xMidYMid meet">
<metadata>
Created by potrace 1.16, written by Peter Selinger 2001-2019
</metadata>
<g transform="translate(0.000000,447.000000) scale(0.100000,-0.100000)"
fill="#000000" stroke="none">
<path d="M0 2235 l0 -2235 2235 0 2235 0 0 2235 0 2235 -1338 0 c-1057 0
-1341 -3 -1351 -12 -11 -10 -13 -10 -7 0 6 9 -174 12 -883 12 l-891 0 0 -2235z
m2398 1240 c269 -63 463 -309 464 -590 1 -189 -83 -365 -230 -480 -31 -25 -61
-45 -67 -45 -5 0 -22 22 -38 49 l-27 49 49 36 c187 137 245 402 135 618 -33
65 -132 164 -200 200 -322 172 -714 -61 -714 -426 0 -155 66 -294 182 -384
l58 -45 -22 -36 c-37 -63 -43 -67 -75 -46 -54 36 -134 119 -173 181 -65 104
-93 200 -94 324 0 112 19 191 69 289 72 142 222 261 385 305 73 19 215 20 298
1z m2 -258 c80 -36 144 -97 182 -175 30 -60 33 -75 33 -157 0 -78 -4 -98 -29
-152 -26 -58 -119 -163 -144 -163 -5 0 -21 22 -36 49 l-27 50 45 45 c59 59 84
136 68 213 -46 221 -335 270 -449 76 -24 -41 -28 -59 -28 -118 1 -82 23 -134
80 -184 l36 -32 -27 -47 c-15 -26 -28 -49 -30 -51 -10 -12 -89 60 -123 111
-136 202 -36 476 202 554 63 21 179 12 247 -19z m-67 -244 c62 -56 54 -151
-16 -193 -113 -69 -239 73 -159 178 39 50 127 58 175 15z m1095 -894 c93 -57
86 -235 -11 -285 -42 -22 -118 -21 -159 3 -40 22 -78 93 -78 143 1 47 32 115
65 136 51 34 131 35 183 3z m-2208 6 c0 -11 -18 -15 -77 -17 l-78 -3 -1 -52
-1 -53 73 0 c59 0 74 -3 74 -15 0 -12 -14 -15 -64 -15 -76 0 -88 -11 -84 -72
l3 -43 78 -3 c59 -2 77 -6 77 -17 0 -12 -18 -15 -95 -15 l-95 0 0 160 0 160
95 0 c77 0 95 -3 95 -15z m300 0 c28 -15 50 -42 50 -64 0 -21 -29 -11 -60 20
-28 29 -35 31 -78 26 -75 -8 -114 -74 -97 -164 16 -89 115 -124 177 -63 44 45
74 38 48 -11 -27 -50 -148 -69 -198 -32 -43 32 -62 66 -68 119 -8 66 20 135
68 164 40 24 116 27 158 5z m361 -8 c84 -56 93 -195 18 -264 -54 -48 -155 -49
-206 -1 -38 35 -53 72 -53 128 0 70 38 134 90 153 40 15 118 6 151 -16z m198
-75 c19 -53 42 -115 51 -137 l17 -39 48 133 c44 121 64 155 82 137 3 -3 -20
-76 -52 -161 -51 -137 -60 -155 -80 -155 -20 0 -29 18 -83 160 -56 151 -59
160 -38 160 18 0 26 -15 55 -98z m471 83 c0 -12 -16 -15 -80 -15 l-80 0 0 -55
0 -55 70 0 c56 0 70 -3 70 -15 0 -12 -14 -15 -70 -15 l-70 0 0 -60 0 -60 80 0
c64 0 80 -3 80 -15 0 -12 -18 -15 -100 -15 l-100 0 0 160 0 160 100 0 c82 0
100 -3 100 -15z m233 3 c34 -18 46 -40 47 -85 0 -34 -5 -46 -30 -67 l-31 -25
31 -60 c35 -71 35 -71 12 -71 -12 0 -28 21 -50 65 -30 62 -34 65 -67 65 l-35
0 0 -65 c0 -58 -2 -65 -20 -65 -19 0 -20 7 -20 160 l0 160 71 0 c39 0 80 -5
92 -12z m282 6 c14 -6 45 -53 45 -69 0 -15 -35 -2 -52 20 -32 41 -108 28 -108
-19 0 -29 22 -48 83 -70 59 -22 87 -51 87 -88 0 -67 -67 -108 -142 -88 -40 11
-78 51 -78 81 0 27 29 23 40 -5 25 -67 140 -60 140 8 0 30 -12 39 -79 65 -71
27 -91 46 -91 88 0 50 37 83 94 83 24 0 52 -3 61 -6z"/>
<path d="M3279 2055 c-76 -41 -76 -190 0 -229 69 -36 140 -11 166 58 23 60 13
110 -30 153 -26 26 -41 33 -71 33 -22 -1 -51 -7 -65 -15z"/>
<path d="M1744 2060 c-42 -17 -64 -58 -64 -122 0 -55 3 -63 34 -94 28 -28 41
-34 78 -34 73 0 118 50 118 130 0 96 -81 155 -166 120z"/>
<path d="M2660 2006 l0 -66 43 0 c57 0 87 22 87 64 0 43 -19 58 -80 64 l-50 5
0 -67z"/>
</g>
</svg>
