<?xml version="1.0" standalone="no"?>
<!DOCTYPE svg PUBLIC "-//W3C//DTD SVG 20010904//EN"
 "http://www.w3.org/TR/2001/REC-SVG-20010904/DTD/svg10.dtd">
<svg version="1.0" xmlns="http://www.w3.org/2000/svg"
 width="198.000000pt" height="198.000000pt" viewBox="0 0 198.000000 198.000000"
 preserveAspectRatio="xMidYMid meet">
<metadata>
Created by potrace 1.16, written by Peter Selinger 2001-2019
</metadata>
<g transform="translate(0.000000,198.000000) scale(0.100000,-0.100000)"
fill="#000000" stroke="none">
<path d="M0 990 l0 -990 990 0 990 0 0 990 0 990 -990 0 -990 0 0 -990z m470
96 c0 -21 -5 -25 -37 -28 -44 -4 -54 -24 -19 -38 16 -6 26 -17 26 -30 0 -13
-10 -24 -26 -30 -35 -14 -25 -34 19 -38 32 -3 37 -7 37 -28 0 -23 -2 -24 -70
-24 l-70 0 0 120 0 120 70 0 c68 0 70 -1 70 -24z m142 12 c9 -7 19 -23 23 -35
6 -21 3 -23 -29 -23 -20 0 -36 5 -36 10 0 6 -4 10 -10 10 -6 0 -10 -30 -10
-70 0 -40 4 -70 10 -70 6 0 10 5 10 10 0 6 16 10 36 10 32 0 35 -2 29 -22 -10
-33 -34 -48 -74 -48 -59 0 -71 21 -71 118 0 65 4 90 17 104 19 21 81 24 105 6z
m174 -2 c16 -12 19 -27 19 -106 0 -104 -10 -120 -75 -120 -59 0 -75 26 -75
120 0 63 4 82 19 99 23 25 82 28 112 7z m99 -13 c3 -16 10 -41 14 -58 9 -30 9
-30 10 -4 1 15 4 41 7 58 6 26 11 31 35 31 36 0 36 -3 7 -138 l-23 -103 -35 3
c-34 3 -34 3 -51 78 -10 41 -20 94 -24 118 -6 42 -6 42 24 42 25 0 32 -5 36
-27z m255 2 c0 -22 -4 -25 -35 -25 -28 0 -35 -4 -35 -20 0 -13 7 -20 20 -20
16 0 20 -7 20 -30 0 -23 -4 -30 -20 -30 -13 0 -20 -7 -20 -20 0 -16 7 -20 35
-20 31 0 35 -3 35 -25 0 -24 -2 -25 -70 -25 l-70 0 0 120 0 120 70 0 c68 0 70
-1 70 -25z m151 4 c17 -17 20 -28 15 -62 -10 -62 -10 -88 -1 -124 7 -32 6 -33
-23 -33 -28 0 -32 4 -38 35 -9 50 -24 54 -24 6 0 -39 -2 -41 -30 -41 l-30 0 0
120 0 120 55 0 c43 0 60 -5 76 -21z m169 1 c29 -29 26 -50 -9 -50 -17 0 -33 5
-36 10 -4 6 -11 7 -17 4 -6 -4 9 -24 36 -49 50 -46 57 -74 30 -113 -12 -17
-25 -22 -59 -22 -34 0 -47 5 -59 22 -9 12 -16 28 -16 35 0 15 56 18 65 3 4 -6
11 -7 17 -4 5 4 -10 25 -36 49 -50 45 -57 74 -30 113 20 29 85 31 114 2z m166
6 c16 -12 19 -27 19 -106 0 -104 -10 -120 -75 -120 -59 0 -75 26 -75 120 0 63
4 82 19 99 23 25 82 28 112 7z"/>
</g>
</svg>
