<?xml version="1.0" standalone="no"?>
<!DOCTYPE svg PUBLIC "-//W3C//DTD SVG 20010904//EN"
 "http://www.w3.org/TR/2001/REC-SVG-20010904/DTD/svg10.dtd">
<svg version="1.0" xmlns="http://www.w3.org/2000/svg"
 width="497.000000pt" height="502.000000pt" viewBox="0 0 497.000000 502.000000"
 preserveAspectRatio="xMidYMid meet">

<g transform="translate(0.000000,502.000000) scale(0.100000,-0.100000)"
fill="#000000" stroke="none">
<path d="M2150 4703 c-56 -3 -78 -8 -88 -21 -11 -14 -14 -15 -21 -3 -8 12 -22
12 -88 2 -112 -18 -284 -61 -308 -77 -11 -8 -31 -14 -45 -14 -14 0 -47 -12
-75 -25 -27 -14 -56 -25 -63 -25 -45 0 -366 -177 -428 -235 -20 -19 -41 -35
-47 -35 -18 0 -116 -79 -219 -178 -350 -335 -570 -742 -670 -1242 -21 -104
-23 -142 -23 -400 0 -269 2 -292 27 -417 38 -185 98 -383 117 -383 3 0 6 -13
7 -28 3 -75 211 -438 346 -602 141 -173 347 -355 547 -485 191 -123 491 -243
740 -294 50 -11 55 -10 68 9 16 23 33 18 33 -9 0 -15 11 -20 55 -26 30 -3 60
-3 67 2 21 13 62 10 73 -5 15 -19 340 -11 485 12 152 23 402 91 435 116 6 5
57 27 115 50 130 52 226 104 356 192 117 78 299 232 362 304 24 27 61 68 83
92 21 24 39 47 39 52 0 5 20 30 44 56 52 54 75 99 57 117 -16 16 -13 29 7 25
29 -6 75 52 134 167 114 224 206 486 210 603 1 31 6 59 10 63 30 21 49 433 28
620 -40 366 -149 682 -342 988 -90 144 -178 252 -312 387 -161 161 -318 277
-527 392 -85 47 -316 142 -394 162 -27 7 -68 18 -91 26 -75 24 -263 55 -391
64 -125 9 -160 9 -313 3z m254 -156 c-3 -9 -13 -17 -20 -17 -21 0 -29 27 -13
46 10 13 14 13 26 1 8 -7 11 -21 7 -30z m71 -7 c0 -27 -22 -39 -31 -16 -8 22
3 49 19 43 6 -2 12 -14 12 -27z m-161 -31 c-3 -5 -10 -7 -15 -3 -5 3 -7 10 -3
15 3 5 10 7 15 3 5 -3 7 -10 3 -15z m-440 -67 c8 -13 -11 -35 -23 -28 -16 10
-14 36 3 36 8 0 17 -4 20 -8z m551 -36 c268 -10 572 -106 824 -260 243 -148
437 -336 597 -578 36 -54 72 -98 80 -98 11 0 13 -6 9 -19 -4 -13 10 -52 39
-110 142 -281 214 -668 188 -997 -50 -611 -359 -1142 -863 -1482 -60 -41 -242
-132 -341 -171 -80 -32 -281 -89 -333 -96 -16 -2 -68 -8 -115 -14 -188 -24
-438 -9 -645 39 -177 41 -463 167 -598 262 -26 19 -29 19 -46 4 -28 -26 -54
-10 -47 28 6 30 1 36 -81 107 -324 278 -538 655 -631 1109 -38 186 -46 325
-28 510 26 262 84 480 185 695 28 59 51 113 51 120 0 7 9 20 19 29 10 9 35 44
55 76 32 52 35 62 24 80 -11 17 -11 22 1 29 7 5 21 7 31 4 12 -3 36 19 83 74
54 65 263 273 274 273 2 0 45 29 96 64 108 75 235 144 344 189 43 18 85 37 92
42 8 5 24 10 35 11 12 1 75 16 141 33 137 35 304 59 385 54 30 -1 109 -5 175
-7z m-1065 -187 c0 -5 -4 -9 -10 -9 -5 0 -10 7 -10 16 0 8 5 12 10 9 6 -3 10
-10 10 -16z m2198 -120 c-2 -6 -8 -10 -13 -10 -5 0 -11 4 -13 10 -2 6 4 11 13
11 9 0 15 -5 13 -11z m-2768 -83 c0 -11 -19 -15 -25 -6 -3 5 1 10 9 10 9 0 16
-2 16 -4z m3350 -680 c0 -3 -4 -8 -10 -11 -5 -3 -10 -1 -10 4 0 6 5 11 10 11
6 0 10 -2 10 -4z m-3779 -299 c-1 -12 -15 -9 -19 4 -3 6 1 10 8 8 6 -3 11 -8
11 -12z m59 -153 c0 -8 -5 -12 -10 -9 -6 4 -8 11 -5 16 9 14 15 11 15 -7z
m3935 -84 c3 -5 1 -10 -4 -10 -6 0 -11 5 -11 10 0 6 2 10 4 10 3 0 8 -4 11
-10z m-4031 -231 c-3 -5 -10 -7 -15 -3 -5 3 -7 10 -3 15 3 5 10 7 15 3 5 -3 7
-10 3 -15z m146 -1163 c0 -7 -7 -19 -16 -27 -13 -10 -17 -10 -24 1 -4 7 -6 19
-3 27 7 17 43 17 43 -1z m380 -166 c0 -5 -2 -10 -4 -10 -3 0 -8 5 -11 10 -3 6
-1 10 4 10 6 0 11 -4 11 -10z m3224 -88 c9 -14 -12 -35 -28 -29 -23 9 -20 37
3 37 11 0 22 -4 25 -8z m-459 -102 c3 -5 1 -10 -4 -10 -6 0 -11 5 -11 10 0 6
2 10 4 10 3 0 8 -4 11 -10z m60 -150 c3 -5 -1 -10 -10 -10 -9 0 -13 5 -10 10
3 6 8 10 10 10 2 0 7 -4 10 -10z m-1947 -383 c2 -10 -3 -17 -12 -17 -10 0 -16
9 -16 21 0 24 23 21 28 -4z m342 14 c0 -12 -20 -25 -27 -18 -7 7 6 27 18 27 5
0 9 -4 9 -9z m-340 -59 c0 -13 -12 -22 -22 -16 -10 6 -1 24 13 24 5 0 9 -4 9
-8z m198 -18 c4 -25 -22 -49 -43 -40 -15 5 -21 47 -8 60 14 14 48 1 51 -20z
m-329 -41 c-15 -18 -34 -1 -25 22 5 14 9 15 21 5 12 -10 13 -16 4 -27z m246
-23 c0 -22 -29 -18 -33 3 -3 14 1 18 15 15 10 -2 18 -10 18 -18z m1203 -7 c-2
-10 -10 -18 -18 -18 -8 0 -16 8 -18 18 -2 12 3 17 18 17 15 0 20 -5 18 -17z
m-770 -14 c-2 -6 -8 -10 -13 -10 -5 0 -11 4 -13 10 -2 6 4 11 13 11 9 0 15 -5
13 -11z m320 -97 c2 -7 -3 -12 -12 -12 -9 0 -16 7 -16 16 0 17 22 14 28 -4z"/>
<path d="M2287 3465 c-60 -41 -84 -106 -51 -139 22 -23 48 -20 83 10 37 31 59
26 68 -16 7 -39 39 -58 61 -37 31 32 11 103 -49 172 -37 42 -61 44 -112 10z"/>
<path d="M1901 2811 c-58 -54 -78 -138 -42 -182 37 -46 198 -34 217 16 3 8 -4
26 -15 41 -12 15 -21 36 -21 48 0 11 -16 37 -35 56 -19 19 -35 38 -35 42 0 18
-40 6 -69 -21z"/>
<path d="M2677 2793 c-4 -3 -7 -14 -7 -24 0 -10 -9 -23 -19 -28 -10 -6 -24
-25 -30 -43 -6 -18 -20 -42 -31 -54 -28 -29 -18 -47 40 -74 55 -26 86 -23 143
10 42 25 48 55 23 115 -33 79 -91 126 -119 98z"/>
<path d="M2580 1513 c-24 -9 -70 -55 -85 -87 -33 -66 -5 -171 57 -210 50 -31
152 -27 186 8 13 13 13 16 -1 31 -13 12 -27 14 -64 9 -43 -5 -51 -3 -78 23
l-30 28 93 3 c88 3 93 4 102 27 11 30 -1 108 -21 131 -29 35 -112 54 -159 37z
m94 -79 c14 -38 7 -44 -49 -44 -59 0 -63 4 -39 38 18 27 78 31 88 6z"/>
<path d="M2951 1506 c-14 -8 -28 -22 -32 -32 -6 -15 -8 -14 -8 9 -1 25 -4 27
-46 27 l-45 0 0 -155 0 -155 50 0 50 0 0 100 c0 89 2 101 22 120 12 11 34 20
49 20 28 0 39 15 39 56 0 20 -5 24 -27 24 -16 -1 -39 -7 -52 -14z"/>
<path d="M3125 1511 c-46 -19 -72 -72 -56 -114 10 -27 79 -77 105 -77 7 0 19
-7 26 -15 10 -12 10 -18 0 -30 -18 -21 -53 -19 -84 6 -15 12 -28 20 -29 18
-18 -28 -29 -61 -24 -72 7 -20 100 -39 146 -31 49 9 91 55 91 99 0 27 -8 40
-37 64 -20 17 -49 33 -64 36 -32 7 -54 29 -44 45 9 14 68 13 84 -2 10 -11 16
-8 31 12 26 33 25 37 -10 55 -31 16 -102 19 -135 6z"/>
<path d="M3430 1513 c-24 -9 -70 -55 -85 -87 -20 -40 -19 -95 4 -142 25 -52
51 -74 101 -85 58 -13 111 3 149 46 29 33 31 41 31 108 0 86 -22 130 -75 153
-34 14 -96 18 -125 7z m99 -92 c22 -31 27 -70 12 -99 -5 -9 -12 -24 -14 -33
-9 -29 -47 -30 -73 -2 -19 20 -24 37 -24 76 0 84 57 118 99 58z"/>
<path d="M2147 1503 c-4 -3 -3 -11 2 -17 5 -6 16 -38 25 -71 9 -33 20 -67 23
-75 4 -8 16 -42 27 -75 l21 -60 56 -3 56 -3 13 48 c7 26 16 53 20 58 5 6 16
39 25 75 9 36 23 79 31 95 l13 30 -35 3 c-48 4 -64 -3 -64 -29 0 -11 -6 -35
-14 -52 -8 -18 -20 -58 -26 -89 -6 -32 -15 -58 -19 -58 -5 0 -16 37 -26 83 -9
45 -21 87 -26 93 -5 6 -6 14 -2 17 3 4 0 13 -7 22 -12 15 -80 21 -93 8z"/>
</g>
</svg>
