<?xml version="1.0" standalone="no"?>
<!DOCTYPE svg PUBLIC "-//W3C//DTD SVG 20010904//EN"
 "http://www.w3.org/TR/2001/REC-SVG-20010904/DTD/svg10.dtd">
<svg version="1.0" xmlns="http://www.w3.org/2000/svg"
 width="198.000000pt" height="198.000000pt" viewBox="0 0 198.000000 198.000000"
 preserveAspectRatio="xMidYMid meet">
<metadata>
Created by potrace 1.16, written by Peter Selinger 2001-2019
</metadata>
<g transform="translate(0.000000,198.000000) scale(0.100000,-0.100000)"
fill="#000000" stroke="none">
<path d="M0 990 l0 -990 990 0 990 0 0 990 0 990 -990 0 -990 0 0 -990z m1133
573 c231 -109 299 -400 140 -598 -38 -47 -65 -68 -127 -100 -76 -39 -82 -40
-175 -40 -84 0 -104 4 -155 28 -119 55 -190 140 -222 267 -51 201 71 406 276
466 76 22 186 13 263 -23z m-663 -962 c0 -27 -3 -30 -37 -33 -43 -3 -54 -31
-15 -36 31 -5 31 -49 0 -54 -13 -2 -24 -11 -26 -20 -3 -15 4 -18 37 -18 39 0
41 -2 41 -30 l0 -30 -70 0 -70 0 0 125 0 125 70 0 70 0 0 -29z m145 4 c35 -34
32 -55 -5 -55 -18 0 -33 6 -36 15 -4 8 -10 12 -15 9 -12 -7 -11 -131 1 -139 6
-3 10 1 10 9 0 12 10 16 35 16 43 0 46 -20 10 -55 -30 -31 -77 -33 -105 -5
-17 17 -20 33 -20 105 0 72 3 88 20 105 28 28 75 26 105 -5z m166 6 c21 -17
24 -30 27 -99 4 -76 2 -82 -22 -106 -30 -31 -74 -34 -107 -7 -22 18 -24 27
-24 106 0 79 2 88 24 106 30 24 72 24 102 0z m103 -3 c3 -13 8 -41 12 -63 l8
-40 9 63 c8 60 10 62 38 62 35 0 36 -5 9 -131 -27 -125 -25 -121 -62 -117
l-33 3 -22 105 c-29 139 -29 140 7 140 23 0 31 -5 34 -22z m256 -8 c0 -28 -3
-30 -35 -30 -28 0 -35 -4 -35 -20 0 -13 7 -20 20 -20 15 0 20 -7 20 -25 0 -18
-5 -25 -20 -25 -13 0 -20 -7 -20 -20 0 -16 7 -20 35 -20 32 0 35 -2 35 -30 l0
-30 -70 0 -70 0 0 118 c0 65 3 122 7 125 3 4 35 7 70 7 l63 0 0 -30z m144 9
c20 -15 26 -29 26 -58 0 -20 -5 -42 -12 -49 -9 -9 -9 -21 0 -50 19 -61 16 -72
-17 -72 -26 0 -30 5 -42 48 l-13 47 -4 -47 c-3 -46 -5 -48 -33 -48 l-29 0 0
125 0 125 49 0 c34 0 56 -6 75 -21z m171 -4 c14 -13 25 -31 25 -40 0 -21 -56
-20 -68 1 -7 12 -11 13 -16 5 -5 -7 10 -29 38 -55 52 -48 58 -77 24 -113 -27
-29 -67 -30 -102 -2 -37 29 -35 59 4 59 17 0 30 -4 30 -10 0 -5 7 -10 15 -10
21 0 9 22 -24 45 -55 36 -66 92 -25 124 35 28 69 26 99 -4z m170 0 c22 -21 25
-33 25 -100 0 -67 -3 -79 -25 -100 -25 -26 -63 -32 -95 -15 -51 28 -54 189 -3
228 27 20 72 14 98 -13z"/>
<path d="M879 1557 c-299 -85 -361 -470 -105 -647 189 -130 463 -35 537 187
57 172 -28 362 -196 439 -66 30 -170 40 -236 21z m236 -47 c101 -48 162 -129
185 -247 10 -48 10 -73 0 -112 -7 -28 -15 -51 -18 -51 -4 0 -8 21 -10 46 -1
26 -6 54 -11 62 -8 14 -11 12 -22 -10 -6 -15 -15 -25 -20 -23 -10 7 -59 -16
-59 -26 0 -8 -71 -31 -77 -25 -2 2 14 11 37 20 22 9 40 20 40 25 0 5 9 13 21
16 18 6 20 12 15 39 -3 17 -12 36 -20 41 -7 6 -16 20 -20 33 -9 26 -14 27 -40
7 -11 -8 -26 -15 -34 -15 -8 0 -21 -8 -29 -17 -13 -17 -13 -16 -4 2 5 11 18
28 29 38 19 17 19 21 5 70 -9 29 -19 56 -24 62 -15 15 -35 -14 -64 -89 -14
-38 -34 -75 -44 -83 -11 -7 -25 -29 -31 -48 -13 -39 -26 -45 -35 -16 -3 10
-17 31 -30 45 -14 15 -25 36 -25 47 0 38 -31 15 -54 -39 -12 -29 -30 -60 -38
-68 -15 -15 -17 -14 -23 5 -14 46 -37 11 -40 -64 -4 -60 -5 -63 -20 -30 -21
46 -19 165 5 227 28 76 89 141 163 177 54 26 73 31 146 31 72 0 91 -4 146 -30z
m-179 -396 c27 -12 34 -20 34 -43 0 -16 -7 -34 -15 -41 -20 -17 -19 -27 4 -35
17 -5 29 -16 90 -82 27 -30 14 -36 -76 -37 -63 0 -76 3 -95 22 -21 21 -21 22
-3 22 18 0 18 0 -1 15 -14 11 -15 14 -4 15 12 0 13 2 1 9 -7 5 -11 13 -7 19 3
6 0 13 -6 15 -7 3 -2 6 11 6 12 1 39 17 59 37 l36 36 -24 19 c-47 36 -50 40
-49 62 2 21 2 21 6 -1 3 -15 17 -29 39 -38z"/>
</g>
</svg>
